<?xml version="1.0" encoding="UTF-8"?> <svg xmlns="http://www.w3.org/2000/svg" width="226" height="91" viewBox="0 0 226 91" fill="none"> <path d="M44.5401 91C69.139 91 89.0803 70.629 89.0803 45.5C89.0803 20.371 69.139 0 44.5401 0C19.9413 0 0 20.371 0 45.5C0 70.629 19.9413 91 44.5401 91Z" fill="#FF9900"></path> <path d="M14.2607 32.739H19.0488L28.328 44.4552L37.6443 32.701H42.4324V58.5602H38.2753V39.7156L28.2909 52.304L18.4178 39.8294V58.5602H14.2607V32.739ZM47.0278 58.5602V32.701H51.222V53.9344H62.1344V58.5602H47.0278ZM80.4564 32.701V37.289H71.8082V58.5602H67.5398V37.289H58.8545V32.701H80.4564ZM83.891 58.5602V55.4131H86.7861V58.4844L83.891 58.5602ZM91.3939 32.701H119.603V58.5602H115.408V37.3269H107.614V58.5602H103.383V37.3269H95.5881V58.5602H91.3939V32.701ZM124.197 32.701H148.026C148.026 35.4563 148.014 38.1863 147.989 40.891C147.989 43.5958 147.989 46.3258 147.989 49.081H128.392V53.9344H147.989V58.5602H124.197V32.701ZM128.392 37.3269V44.4552H143.758V37.3269H128.392ZM172.027 32.701V42.1423H176.37V58.5223L152.652 58.5602C152.652 54.2377 152.652 49.9279 152.652 45.6306C152.677 41.3334 152.665 37.0235 152.615 32.701H172.027ZM156.809 46.7681V53.9344H172.213V46.7681H156.809ZM156.809 37.289V42.1423H167.833V37.289H156.809ZM180.96 32.701H204.789C204.789 35.4563 204.777 38.1863 204.752 40.891C204.752 43.5958 204.752 46.3258 204.752 49.081H185.154V53.9344H204.752V58.5602H180.96V32.701ZM185.154 37.3269V44.4552H200.521V37.3269H185.154ZM209.377 58.5602V32.701H213.572V53.9344H224.484V58.5602H209.377Z" fill="#232323"></path> <path d="M78.7559 64.4584H225.601" stroke="#FF9900"></path> <path d="M72.9824 70.7778H176.085" stroke="#FF9900"></path> </svg> 